# Blender 5.0.0
# www.blender.org
mtllib graby.mtl
o Cube
v 0.050000 0.050000 -0.450000
v -0.050000 0.050000 -0.450000
v 0.050000 -0.050000 -0.450000
v -0.050000 -0.050000 -0.450000
v 0.050000 0.050000 -0.550000
v -0.050000 0.050000 -0.550000
v 0.050000 -0.050000 -0.550000
v -0.050000 -0.050000 -0.550000
v 0.012500 0.012500 -0.450000
v -0.012500 0.012500 -0.450000
v 0.012500 -0.012500 -0.450000
v -0.012500 -0.012500 -0.450000
v 0.025000 0.025000 0.000000
v -0.025000 0.025000 -0.000000
v 0.025000 -0.025000 0.000000
v -0.025000 -0.025000 -0.000000
vn -0.0000 -0.0000 1.0000
vn -0.0000 -1.0000 -0.0000
vn -0.0000 -0.0000 -1.0000
vn -0.0000 1.0000 -0.0000
vn 1.0000 -0.0000 -0.0000
vn -1.0000 -0.0000 -0.0000
vn -0.0000 -0.9996 -0.0278
vn -0.0000 0.9996 -0.0278
vn -0.9996 -0.0000 -0.0278
vn 0.9996 -0.0000 -0.0278
s 0
usemtl Material.001
f 2//1 12//1 10//1
f 4//2 7//2 3//2
f 8//3 5//3 7//3
f 6//4 1//4 5//4
f 3//5 5//5 1//5
f 4//6 6//6 8//6
f 1//1 11//1 3//1
f 3//1 12//1 4//1
f 1//1 10//1 9//1
f 11//7 16//7 12//7
f 10//8 13//8 9//8
f 12//9 14//9 10//9
f 9//10 15//10 11//10
f 13//1 16//1 15//1
f 2//1 4//1 12//1
f 4//2 8//2 7//2
f 8//3 6//3 5//3
f 6//4 2//4 1//4
f 3//5 7//5 5//5
f 4//6 2//6 6//6
f 1//1 9//1 11//1
f 3//1 11//1 12//1
f 1//1 2//1 10//1
f 11//7 15//7 16//7
f 10//8 14//8 13//8
f 12//9 16//9 14//9
f 9//10 13//10 15//10
f 13//1 14//1 16//1
