# Blender 5.0.0
# www.blender.org
mtllib roty.mtl
o Circle
v -0.500000 0.000000 0.015000
v -0.497592 0.049009 0.015000
v -0.490393 0.097545 0.015000
v -0.478470 0.145142 0.015000
v -0.461940 0.191342 0.015000
v -0.440961 0.235698 0.015000
v -0.415735 0.277785 0.015000
v -0.386505 0.317197 0.015000
v -0.353553 0.353553 0.015000
v -0.317197 0.386505 0.015000
v -0.277785 0.415735 0.015000
v -0.235698 0.440961 0.015000
v -0.191342 0.461940 0.015000
v -0.145142 0.478470 0.015000
v -0.097545 0.490393 0.015000
v -0.049009 0.497592 0.015000
v 0.000000 0.500000 0.015000
v 0.049009 0.497592 0.015000
v 0.097545 0.490393 0.015000
v 0.145142 0.478470 0.015000
v 0.191342 0.461940 0.015000
v 0.235698 0.440961 0.015000
v 0.277785 0.415735 0.015000
v 0.317197 0.386505 0.015000
v 0.353553 0.353553 0.015000
v 0.386505 0.317197 0.015000
v 0.415735 0.277785 0.015000
v 0.440961 0.235698 0.015000
v 0.461940 0.191342 0.015000
v 0.478470 0.145142 0.015000
v 0.490393 0.097545 0.015000
v 0.497592 0.049009 0.015000
v 0.500000 0.000000 0.015000
v 0.497592 -0.049009 0.015000
v 0.490393 -0.097545 0.015000
v 0.478470 -0.145142 0.015000
v 0.461940 -0.191342 0.015000
v 0.440961 -0.235698 0.015000
v 0.415735 -0.277785 0.015000
v 0.386505 -0.317197 0.015000
v 0.353553 -0.353553 0.015000
v 0.317197 -0.386505 0.015000
v 0.277785 -0.415735 0.015000
v 0.235698 -0.440961 0.015000
v 0.191342 -0.461940 0.015000
v 0.145142 -0.478470 0.015000
v 0.097545 -0.490393 0.015000
v 0.049009 -0.497592 0.015000
v 0.000000 -0.500000 0.015000
v -0.049009 -0.497592 0.015000
v -0.097545 -0.490393 0.015000
v -0.145142 -0.478470 0.015000
v -0.191342 -0.461940 0.015000
v -0.235698 -0.440961 0.015000
v -0.277785 -0.415735 0.015000
v -0.317197 -0.386505 0.015000
v -0.353553 -0.353553 0.015000
v -0.386505 -0.317197 0.015000
v -0.415735 -0.277785 0.015000
v -0.440961 -0.235698 0.015000
v -0.461940 -0.191342 0.015000
v -0.478470 -0.145142 0.015000
v -0.490393 -0.097545 0.015000
v -0.497592 -0.049009 0.015000
v -0.500000 0.000000 -0.015000
v -0.497592 0.049009 -0.015000
v -0.490393 0.097545 -0.015000
v -0.478470 0.145142 -0.015000
v -0.461940 0.191342 -0.015000
v -0.440961 0.235698 -0.015000
v -0.415735 0.277785 -0.015000
v -0.386505 0.317197 -0.015000
v -0.353553 0.353553 -0.015000
v -0.317197 0.386505 -0.015000
v -0.277785 0.415735 -0.015000
v -0.235698 0.440961 -0.015000
v -0.191342 0.461940 -0.015000
v -0.145142 0.478470 -0.015000
v -0.097545 0.490393 -0.015000
v -0.049009 0.497592 -0.015000
v -0.000000 0.500000 -0.015000
v 0.049009 0.497592 -0.015000
v 0.097545 0.490393 -0.015000
v 0.145142 0.478470 -0.015000
v 0.191342 0.461940 -0.015000
v 0.235698 0.440961 -0.015000
v 0.277785 0.415735 -0.015000
v 0.317197 0.386505 -0.015000
v 0.353553 0.353553 -0.015000
v 0.386505 0.317197 -0.015000
v 0.415735 0.277785 -0.015000
v 0.440961 0.235698 -0.015000
v 0.461940 0.191342 -0.015000
v 0.478470 0.145142 -0.015000
v 0.490393 0.097545 -0.015000
v 0.497592 0.049009 -0.015000
v 0.500000 0.000000 -0.015000
v 0.497592 -0.049009 -0.015000
v 0.490393 -0.097545 -0.015000
v 0.478470 -0.145142 -0.015000
v 0.461940 -0.191342 -0.015000
v 0.440961 -0.235698 -0.015000
v 0.415735 -0.277785 -0.015000
v 0.386505 -0.317197 -0.015000
v 0.353553 -0.353553 -0.015000
v 0.317197 -0.386505 -0.015000
v 0.277785 -0.415735 -0.015000
v 0.235698 -0.440961 -0.015000
v 0.191342 -0.461940 -0.015000
v 0.145142 -0.478470 -0.015000
v 0.097545 -0.490393 -0.015000
v 0.049009 -0.497592 -0.015000
v -0.000000 -0.500000 -0.015000
v -0.049009 -0.497592 -0.015000
v -0.097545 -0.490393 -0.015000
v -0.145142 -0.478470 -0.015000
v -0.191342 -0.461940 -0.015000
v -0.235698 -0.440961 -0.015000
v -0.277785 -0.415735 -0.015000
v -0.317197 -0.386505 -0.015000
v -0.353553 -0.353553 -0.015000
v -0.386505 -0.317197 -0.015000
v -0.415735 -0.277785 -0.015000
v -0.440961 -0.235698 -0.015000
v -0.461940 -0.191342 -0.015000
v -0.478470 -0.145142 -0.015000
v -0.490393 -0.097545 -0.015000
v -0.497592 -0.049009 -0.015000
v -0.480224 0.047298 0.014476
v -0.482548 0.000000 0.014476
v -0.473276 0.094140 0.014476
v -0.461770 0.140076 0.014476
v -0.445816 0.184663 0.014476
v -0.425569 0.227472 0.014476
v -0.401224 0.268089 0.014476
v -0.373015 0.306125 0.014476
v -0.341213 0.341213 0.014476
v -0.306125 0.373015 0.014476
v -0.268089 0.401224 0.014476
v -0.227472 0.425569 0.014476
v -0.184663 0.445816 0.014476
v -0.140076 0.461770 0.014476
v -0.094140 0.473276 0.014476
v -0.047298 0.480224 0.014476
v 0.000000 0.482548 0.014476
v 0.047298 0.480224 0.014476
v 0.094140 0.473276 0.014476
v 0.140076 0.461770 0.014476
v 0.184663 0.445816 0.014476
v 0.227472 0.425569 0.014476
v 0.268089 0.401224 0.014476
v 0.306125 0.373015 0.014476
v 0.341213 0.341213 0.014476
v 0.373015 0.306125 0.014476
v 0.401224 0.268089 0.014476
v 0.425569 0.227472 0.014476
v 0.445816 0.184663 0.014476
v 0.461770 0.140076 0.014476
v 0.473276 0.094140 0.014476
v 0.480224 0.047298 0.014476
v 0.482548 0.000000 0.014476
v 0.480224 -0.047298 0.014476
v 0.473276 -0.094140 0.014476
v 0.461770 -0.140076 0.014476
v 0.445816 -0.184663 0.014476
v 0.425569 -0.227472 0.014476
v 0.401224 -0.268089 0.014476
v 0.373015 -0.306125 0.014476
v 0.341213 -0.341213 0.014476
v 0.306125 -0.373015 0.014476
v 0.268089 -0.401224 0.014476
v 0.227472 -0.425569 0.014476
v 0.184663 -0.445816 0.014476
v 0.140076 -0.461770 0.014476
v 0.094140 -0.473276 0.014476
v 0.047298 -0.480224 0.014476
v 0.000000 -0.482548 0.014476
v -0.047298 -0.480224 0.014476
v -0.094140 -0.473276 0.014476
v -0.140076 -0.461770 0.014476
v -0.184663 -0.445816 0.014476
v -0.227472 -0.425569 0.014476
v -0.268089 -0.401224 0.014476
v -0.306125 -0.373015 0.014476
v -0.341213 -0.341213 0.014476
v -0.373015 -0.306125 0.014476
v -0.401224 -0.268089 0.014476
v -0.425569 -0.227472 0.014476
v -0.445816 -0.184663 0.014476
v -0.461770 -0.140076 0.014476
v -0.473276 -0.094140 0.014476
v -0.480224 -0.047298 0.014476
v -0.480224 0.047298 -0.014476
v -0.482548 0.000000 -0.014476
v -0.473276 0.094140 -0.014476
v -0.461770 0.140076 -0.014476
v -0.445816 0.184663 -0.014476
v -0.425569 0.227472 -0.014476
v -0.401224 0.268089 -0.014476
v -0.373015 0.306125 -0.014476
v -0.341213 0.341213 -0.014476
v -0.306125 0.373015 -0.014476
v -0.268089 0.401224 -0.014476
v -0.227472 0.425569 -0.014476
v -0.184663 0.445816 -0.014476
v -0.140076 0.461770 -0.014476
v -0.094140 0.473276 -0.014476
v -0.047298 0.480224 -0.014476
v -0.000000 0.482548 -0.014476
v 0.047298 0.480224 -0.014476
v 0.094140 0.473276 -0.014476
v 0.140076 0.461770 -0.014476
v 0.184663 0.445816 -0.014476
v 0.227472 0.425569 -0.014476
v 0.268089 0.401224 -0.014476
v 0.306125 0.373015 -0.014476
v 0.341213 0.341213 -0.014476
v 0.373015 0.306125 -0.014476
v 0.401224 0.268089 -0.014476
v 0.425569 0.227472 -0.014476
v 0.445816 0.184663 -0.014476
v 0.461770 0.140076 -0.014476
v 0.473276 0.094140 -0.014476
v 0.480224 0.047298 -0.014476
v 0.482548 0.000000 -0.014476
v 0.480224 -0.047298 -0.014476
v 0.473276 -0.094140 -0.014476
v 0.461770 -0.140076 -0.014476
v 0.445816 -0.184663 -0.014476
v 0.425569 -0.227472 -0.014476
v 0.401224 -0.268089 -0.014476
v 0.373015 -0.306125 -0.014476
v 0.341213 -0.341213 -0.014476
v 0.306125 -0.373015 -0.014476
v 0.268089 -0.401224 -0.014476
v 0.227472 -0.425569 -0.014476
v 0.184663 -0.445816 -0.014476
v 0.140076 -0.461770 -0.014476
v 0.094140 -0.473276 -0.014476
v 0.047298 -0.480224 -0.014476
v -0.000000 -0.482548 -0.014476
v -0.047298 -0.480224 -0.014476
v -0.094140 -0.473276 -0.014476
v -0.140076 -0.461770 -0.014476
v -0.184663 -0.445816 -0.014476
v -0.227472 -0.425569 -0.014476
v -0.268089 -0.401224 -0.014476
v -0.306125 -0.373015 -0.014476
v -0.341213 -0.341213 -0.014476
v -0.373015 -0.306125 -0.014476
v -0.401224 -0.268089 -0.014476
v -0.425569 -0.227472 -0.014476
v -0.445816 -0.184663 -0.014476
v -0.461770 -0.140076 -0.014476
v -0.473276 -0.094140 -0.014476
v -0.480224 -0.047298 -0.014476
vn 0.7076 -0.0000 -0.7066
vn 0.7042 -0.0694 -0.7066
vn 0.6940 -0.1381 -0.7066
vn 0.6771 -0.2054 -0.7066
vn 0.6538 -0.2708 -0.7066
vn 0.6241 -0.3336 -0.7066
vn 0.5884 -0.3931 -0.7066
vn 0.5470 -0.4489 -0.7066
vn 0.5004 -0.5004 -0.7066
vn 0.4489 -0.5470 -0.7066
vn 0.3931 -0.5884 -0.7066
vn 0.3336 -0.6241 -0.7066
vn 0.2708 -0.6538 -0.7066
vn 0.2054 -0.6772 -0.7066
vn 0.1381 -0.6940 -0.7066
vn 0.0694 -0.7042 -0.7066
vn -0.0000 -0.7076 -0.7066
vn -0.0694 -0.7042 -0.7066
vn -0.1381 -0.6940 -0.7066
vn -0.2054 -0.6772 -0.7066
vn -0.2708 -0.6538 -0.7066
vn -0.3336 -0.6241 -0.7066
vn -0.3931 -0.5884 -0.7066
vn -0.4489 -0.5470 -0.7066
vn -0.5004 -0.5004 -0.7066
vn -0.5470 -0.4489 -0.7066
vn -0.5884 -0.3931 -0.7066
vn -0.6241 -0.3336 -0.7066
vn -0.6538 -0.2708 -0.7066
vn -0.6771 -0.2054 -0.7066
vn -0.6940 -0.1381 -0.7066
vn -0.7042 -0.0694 -0.7066
vn -0.7076 -0.0000 -0.7066
vn -0.7042 0.0694 -0.7066
vn -0.6940 0.1381 -0.7066
vn -0.6771 0.2054 -0.7066
vn -0.6538 0.2708 -0.7066
vn -0.6241 0.3336 -0.7066
vn -0.5884 0.3931 -0.7066
vn -0.5470 0.4489 -0.7066
vn -0.5004 0.5004 -0.7066
vn -0.4489 0.5470 -0.7066
vn -0.3931 0.5884 -0.7066
vn -0.3336 0.6241 -0.7066
vn -0.2708 0.6538 -0.7066
vn -0.2054 0.6771 -0.7066
vn -0.1381 0.6940 -0.7066
vn -0.0694 0.7042 -0.7066
vn -0.0000 0.7076 -0.7066
vn 0.0694 0.7042 -0.7066
vn 0.1381 0.6940 -0.7066
vn 0.2054 0.6771 -0.7066
vn 0.2708 0.6538 -0.7066
vn 0.3336 0.6241 -0.7066
vn 0.3931 0.5884 -0.7066
vn 0.4489 0.5470 -0.7066
vn 0.5004 0.5004 -0.7066
vn 0.5470 0.4489 -0.7066
vn 0.5884 0.3931 -0.7066
vn 0.6241 0.3336 -0.7066
vn 0.6538 0.2708 -0.7066
vn 0.6771 0.2054 -0.7066
vn 0.6940 0.1381 -0.7066
vn 0.7042 0.0694 -0.7066
vn 0.7076 -0.0000 0.7066
vn 0.7042 -0.0694 0.7066
vn 0.6940 -0.1381 0.7066
vn 0.6771 -0.2054 0.7066
vn 0.6538 -0.2708 0.7066
vn 0.6241 -0.3336 0.7066
vn 0.5884 -0.3931 0.7066
vn 0.5470 -0.4489 0.7066
vn 0.5004 -0.5004 0.7066
vn 0.4489 -0.5470 0.7066
vn 0.3931 -0.5884 0.7066
vn 0.3336 -0.6241 0.7066
vn 0.2708 -0.6538 0.7066
vn 0.2054 -0.6771 0.7066
vn 0.1381 -0.6940 0.7066
vn 0.0694 -0.7042 0.7066
vn -0.0000 -0.7076 0.7066
vn -0.0694 -0.7042 0.7066
vn -0.1381 -0.6940 0.7066
vn -0.2054 -0.6771 0.7066
vn -0.2708 -0.6538 0.7066
vn -0.3336 -0.6241 0.7066
vn -0.3931 -0.5884 0.7066
vn -0.4489 -0.5470 0.7066
vn -0.5004 -0.5004 0.7066
vn -0.5470 -0.4489 0.7066
vn -0.5884 -0.3931 0.7066
vn -0.6241 -0.3336 0.7066
vn -0.6538 -0.2708 0.7066
vn -0.6771 -0.2054 0.7066
vn -0.6940 -0.1381 0.7066
vn -0.7042 -0.0694 0.7066
vn -0.7076 -0.0000 0.7066
vn -0.7042 0.0694 0.7066
vn -0.6940 0.1381 0.7066
vn -0.6771 0.2054 0.7066
vn -0.6538 0.2708 0.7066
vn -0.6241 0.3336 0.7066
vn -0.5884 0.3931 0.7066
vn -0.5470 0.4489 0.7066
vn -0.5004 0.5004 0.7066
vn -0.4489 0.5470 0.7066
vn -0.3931 0.5884 0.7066
vn -0.3336 0.6241 0.7066
vn -0.2708 0.6538 0.7066
vn -0.2054 0.6772 0.7066
vn -0.1381 0.6940 0.7066
vn -0.0694 0.7042 0.7066
vn -0.0000 0.7076 0.7066
vn 0.0694 0.7042 0.7066
vn 0.1381 0.6940 0.7066
vn 0.2054 0.6772 0.7066
vn 0.2708 0.6538 0.7066
vn 0.3336 0.6241 0.7066
vn 0.3931 0.5884 0.7066
vn 0.4489 0.5470 0.7066
vn 0.5004 0.5004 0.7066
vn 0.5470 0.4489 0.7066
vn 0.5884 0.3931 0.7066
vn 0.6241 0.3336 0.7066
vn 0.6538 0.2708 0.7066
vn 0.6771 0.2054 0.7066
vn 0.6940 0.1381 0.7066
vn 0.7042 0.0694 0.7066
vn -0.7034 0.0693 -0.7075
vn -0.7068 -0.0000 -0.7075
vn -0.6932 0.1379 -0.7075
vn -0.6763 0.2052 -0.7075
vn -0.6530 0.2705 -0.7075
vn -0.6233 0.3332 -0.7075
vn -0.5876 0.3927 -0.7075
vn -0.5463 0.4484 -0.7075
vn -0.4998 0.4998 -0.7075
vn -0.4484 0.5463 -0.7075
vn -0.3927 0.5876 -0.7075
vn -0.3332 0.6233 -0.7075
vn -0.2705 0.6530 -0.7075
vn -0.2052 0.6763 -0.7075
vn -0.1379 0.6932 -0.7075
vn -0.0693 0.7034 -0.7075
vn -0.0000 0.7068 -0.7075
vn 0.0693 0.7034 -0.7075
vn 0.1379 0.6932 -0.7075
vn 0.2052 0.6763 -0.7075
vn 0.2705 0.6530 -0.7075
vn 0.3332 0.6233 -0.7075
vn 0.3927 0.5876 -0.7075
vn 0.4484 0.5463 -0.7075
vn 0.4998 0.4998 -0.7075
vn 0.5463 0.4484 -0.7075
vn 0.5876 0.3927 -0.7075
vn 0.6233 0.3332 -0.7075
vn 0.6530 0.2705 -0.7075
vn 0.6763 0.2052 -0.7075
vn 0.6932 0.1379 -0.7075
vn 0.7034 0.0693 -0.7075
vn 0.7068 -0.0000 -0.7075
vn 0.7034 -0.0693 -0.7075
vn 0.6932 -0.1379 -0.7075
vn 0.6763 -0.2052 -0.7075
vn 0.6530 -0.2705 -0.7075
vn 0.6233 -0.3332 -0.7075
vn 0.5877 -0.3927 -0.7075
vn 0.5463 -0.4484 -0.7075
vn 0.4998 -0.4998 -0.7075
vn 0.4484 -0.5463 -0.7075
vn 0.3927 -0.5877 -0.7075
vn 0.3332 -0.6233 -0.7075
vn 0.2705 -0.6530 -0.7075
vn 0.2052 -0.6763 -0.7075
vn 0.1379 -0.6932 -0.7075
vn 0.0693 -0.7034 -0.7075
vn -0.0000 -0.7068 -0.7075
vn -0.0693 -0.7034 -0.7075
vn -0.1379 -0.6932 -0.7075
vn -0.2052 -0.6763 -0.7075
vn -0.2705 -0.6530 -0.7075
vn -0.3332 -0.6233 -0.7075
vn -0.3927 -0.5876 -0.7075
vn -0.4484 -0.5463 -0.7075
vn -0.4998 -0.4998 -0.7075
vn -0.5463 -0.4484 -0.7075
vn -0.5877 -0.3927 -0.7075
vn -0.6233 -0.3332 -0.7075
vn -0.6530 -0.2705 -0.7075
vn -0.6763 -0.2052 -0.7075
vn -0.6932 -0.1379 -0.7075
vn -0.7034 -0.0693 -0.7075
vn -0.7034 0.0693 0.7075
vn -0.7068 -0.0000 0.7075
vn -0.6932 0.1379 0.7075
vn -0.6763 0.2052 0.7075
vn -0.6530 0.2705 0.7075
vn -0.6233 0.3332 0.7075
vn -0.5877 0.3927 0.7075
vn -0.5463 0.4484 0.7075
vn -0.4998 0.4998 0.7075
vn -0.4484 0.5463 0.7075
vn -0.3927 0.5876 0.7075
vn -0.3332 0.6233 0.7075
vn -0.2705 0.6530 0.7075
vn -0.2052 0.6763 0.7075
vn -0.1379 0.6932 0.7075
vn -0.0693 0.7034 0.7075
vn -0.0000 0.7068 0.7075
vn 0.0693 0.7034 0.7075
vn 0.1379 0.6932 0.7075
vn 0.2052 0.6763 0.7075
vn 0.2705 0.6530 0.7075
vn 0.3332 0.6233 0.7075
vn 0.3927 0.5876 0.7075
vn 0.4484 0.5463 0.7075
vn 0.4998 0.4998 0.7075
vn 0.5463 0.4484 0.7075
vn 0.5877 0.3927 0.7075
vn 0.6233 0.3332 0.7075
vn 0.6530 0.2705 0.7075
vn 0.6763 0.2052 0.7075
vn 0.6932 0.1379 0.7075
vn 0.7034 0.0693 0.7075
vn 0.7068 -0.0000 0.7075
vn 0.7034 -0.0693 0.7075
vn 0.6932 -0.1379 0.7075
vn 0.6763 -0.2052 0.7075
vn 0.6530 -0.2705 0.7075
vn 0.6233 -0.3332 0.7075
vn 0.5876 -0.3927 0.7075
vn 0.5463 -0.4484 0.7075
vn 0.4998 -0.4998 0.7075
vn 0.4484 -0.5463 0.7075
vn 0.3927 -0.5876 0.7075
vn 0.3332 -0.6233 0.7075
vn 0.2705 -0.6530 0.7075
vn 0.2052 -0.6763 0.7075
vn 0.1379 -0.6932 0.7075
vn 0.0693 -0.7034 0.7075
vn -0.0000 -0.7068 0.7075
vn -0.0693 -0.7034 0.7075
vn -0.1379 -0.6932 0.7075
vn -0.2052 -0.6763 0.7075
vn -0.2705 -0.6530 0.7075
vn -0.3332 -0.6233 0.7075
vn -0.3927 -0.5876 0.7075
vn -0.4484 -0.5463 0.7075
vn -0.4998 -0.4998 0.7075
vn -0.5463 -0.4484 0.7075
vn -0.5876 -0.3927 0.7075
vn -0.6233 -0.3332 0.7075
vn -0.6530 -0.2705 0.7075
vn -0.6763 -0.2052 0.7075
vn -0.6932 -0.1379 0.7075
vn -0.7034 -0.0693 0.7075
s 1
usemtl ry
f 4//4 69//69 5//5
f 57//57 122//122 58//58
f 95//95 32//32 31//31
f 69//69 6//6 5//5
f 58//58 123//123 59//59
f 96//96 33//33 32//32
f 70//70 7//7 6//6
f 59//59 124//124 60//60
f 97//97 34//34 33//33
f 71//71 8//8 7//7
f 60//60 125//125 61//61
f 98//98 35//35 34//34
f 72//72 9//9 8//8
f 61//61 126//126 62//62
f 99//99 36//36 35//35
f 73//73 10//10 9//9
f 126//126 63//63 62//62
f 100//100 37//37 36//36
f 74//74 11//11 10//10
f 63//63 128//128 64//64
f 101//101 38//38 37//37
f 75//75 12//12 11//11
f 128//128 1//1 64//64
f 102//102 39//39 38//38
f 76//76 13//13 12//12
f 103//103 40//40 39//39
f 77//77 14//14 13//13
f 104//104 41//41 40//40
f 78//78 15//15 14//14
f 105//105 42//42 41//41
f 79//79 16//16 15//15
f 106//106 43//43 42//42
f 80//80 17//17 16//16
f 107//107 44//44 43//43
f 81//81 18//18 17//17
f 108//108 45//45 44//44
f 82//82 19//19 18//18
f 109//109 46//46 45//45
f 83//83 20//20 19//19
f 110//110 47//47 46//46
f 84//84 21//21 20//20
f 47//47 112//112 48//48
f 85//85 22//22 21//21
f 112//112 49//49 48//48
f 86//86 23//23 22//22
f 113//113 50//50 49//49
f 87//87 24//24 23//23
f 50//50 115//115 51//51
f 88//88 25//25 24//24
f 115//115 52//52 51//51
f 89//89 26//26 25//25
f 52//52 117//117 53//53
f 90//90 27//27 26//26
f 117//117 54//54 53//53
f 91//91 28//28 27//27
f 65//65 2//2 1//1
f 54//54 119//119 55//55
f 92//92 29//29 28//28
f 66//66 3//3 2//2
f 55//55 120//120 56//56
f 93//93 30//30 29//29
f 67//67 4//4 3//3
f 56//56 121//121 57//57
f 94//94 31//31 30//30
f 133//133 196//196 132//132
f 186//186 249//249 185//185
f 160//160 223//223 159//159
f 134//134 197//197 133//133
f 187//187 250//250 186//186
f 161//161 224//224 160//160
f 135//135 198//198 134//134
f 188//188 251//251 187//187
f 162//162 225//225 161//161
f 136//136 199//199 135//135
f 189//189 252//252 188//188
f 163//163 226//226 162//162
f 136//136 201//201 200//200
f 190//190 253//253 189//189
f 164//164 227//227 163//163
f 138//138 201//201 137//137
f 190//190 255//255 254//254
f 165//165 228//228 164//164
f 139//139 202//202 138//138
f 191//191 256//256 255//255
f 166//166 229//229 165//165
f 140//140 203//203 139//139
f 130//130 256//256 192//192
f 167//167 230//230 166//166
f 141//141 204//204 140//140
f 168//168 231//231 167//167
f 142//142 205//205 141//141
f 169//169 232//232 168//168
f 143//143 206//206 142//142
f 170//170 233//233 169//169
f 144//144 207//207 143//143
f 171//171 234//234 170//170
f 145//145 208//208 144//144
f 172//172 235//235 171//171
f 146//146 209//209 145//145
f 173//173 236//236 172//172
f 147//147 210//210 146//146
f 174//174 237//237 173//173
f 148//148 211//211 147//147
f 175//175 238//238 174//174
f 149//149 212//212 148//148
f 176//176 239//239 175//175
f 150//150 213//213 149//149
f 177//177 240//240 176//176
f 151//151 214//214 150//150
f 178//178 241//241 177//177
f 152//152 215//215 151//151
f 179//179 242//242 178//178
f 153//153 216//216 152//152
f 180//180 243//243 179//179
f 154//154 217//217 153//153
f 181//181 244//244 180//180
f 155//155 218//218 154//154
f 182//182 245//245 181//181
f 156//156 219//219 155//155
f 129//129 194//194 130//130
f 183//183 246//246 182//182
f 157//157 220//220 156//156
f 131//131 193//193 129//129
f 184//184 247//247 183//183
f 158//158 221//221 157//157
f 131//131 196//196 195//195
f 185//185 248//248 184//184
f 159//159 222//222 158//158
f 17//17 144//144 16//16
f 120//120 247//247 248//248
f 69//69 196//196 197//197
f 18//18 145//145 17//17
f 121//121 248//248 249//249
f 70//70 197//197 198//198
f 19//19 146//146 18//18
f 121//121 250//250 122//122
f 70//70 199//199 71//71
f 20//20 147//147 19//19
f 123//123 250//250 251//251
f 72//72 199//199 200//200
f 21//21 148//148 20//20
f 124//124 251//251 252//252
f 73//73 200//200 201//201
f 22//22 149//149 21//21
f 124//124 253//253 125//125
f 73//73 202//202 74//74
f 23//23 150//150 22//22
f 125//125 254//254 126//126
f 74//74 203//203 75//75
f 24//24 151//151 23//23
f 127//127 254//254 255//255
f 75//75 204//204 76//76
f 25//25 152//152 24//24
f 127//127 256//256 128//128
f 76//76 205//205 77//77
f 25//25 154//154 153//153
f 65//65 256//256 194//194
f 77//77 206//206 78//78
f 27//27 154//154 26//26
f 79//79 206//206 207//207
f 28//28 155//155 27//27
f 79//79 208//208 80//80
f 28//28 157//157 156//156
f 80//80 209//209 81//81
f 29//29 158//158 157//157
f 81//81 210//210 82//82
f 31//31 158//158 30//30
f 83//83 210//210 211//211
f 31//31 160//160 159//159
f 83//83 212//212 84//84
f 32//32 161//161 160//160
f 85//85 212//212 213//213
f 34//34 161//161 33//33
f 86//86 213//213 214//214
f 35//35 162//162 34//34
f 87//87 214//214 215//215
f 35//35 164//164 163//163
f 87//87 216//216 88//88
f 37//37 164//164 36//36
f 89//89 216//216 217//217
f 38//38 165//165 37//37
f 89//89 218//218 90//90
f 38//38 167//167 166//166
f 90//90 219//219 91//91
f 40//40 167//167 39//39
f 92//92 219//219 220//220
f 41//41 168//168 40//40
f 92//92 221//221 93//93
f 41//41 170//170 169//169
f 93//93 222//222 94//94
f 42//42 171//171 170//170
f 95//95 222//222 223//223
f 44//44 171//171 43//43
f 95//95 224//224 96//96
f 44//44 173//173 172//172
f 96//96 225//225 97//97
f 45//45 174//174 173//173
f 97//97 226//226 98//98
f 47//47 174//174 46//46
f 98//98 227//227 99//99
f 47//47 176//176 175//175
f 99//99 228//228 100//100
f 49//49 176//176 48//48
f 101//101 228//228 229//229
f 50//50 177//177 49//49
f 102//102 229//229 230//230
f 51//51 178//178 50//50
f 102//102 231//231 103//103
f 51//51 180//180 179//179
f 103//103 232//232 104//104
f 53//53 180//180 52//52
f 2//2 130//130 1//1
f 105//105 232//232 233//233
f 54//54 181//181 53//53
f 3//3 129//129 2//2
f 105//105 234//234 106//106
f 55//55 182//182 54//54
f 3//3 132//132 131//131
f 107//107 234//234 235//235
f 55//55 184//184 183//183
f 5//5 132//132 4//4
f 107//107 236//236 108//108
f 57//57 184//184 56//56
f 6//6 133//133 5//5
f 108//108 237//237 109//109
f 57//57 186//186 185//185
f 6//6 135//135 134//134
f 109//109 238//238 110//110
f 58//58 187//187 186//186
f 7//7 136//136 135//135
f 110//110 239//239 111//111
f 60//60 187//187 59//59
f 9//9 136//136 8//8
f 111//111 240//240 112//112
f 60//60 189//189 188//188
f 9//9 138//138 137//137
f 112//112 241//241 113//113
f 61//61 190//190 189//189
f 11//11 138//138 10//10
f 113//113 242//242 114//114
f 63//63 190//190 62//62
f 11//11 140//140 139//139
f 115//115 242//242 243//243
f 64//64 191//191 63//63
f 12//12 141//141 140//140
f 116//116 243//243 244//244
f 64//64 130//130 192//192
f 13//13 142//142 141//141
f 117//117 244//244 245//245
f 65//65 193//193 66//66
f 14//14 143//143 142//142
f 118//118 245//245 246//246
f 67//67 193//193 195//195
f 15//15 144//144 143//143
f 119//119 246//246 247//247
f 67//67 196//196 68//68
f 4//4 68//68 69//69
f 57//57 121//121 122//122
f 95//95 96//96 32//32
f 69//69 70//70 6//6
f 58//58 122//122 123//123
f 96//96 97//97 33//33
f 70//70 71//71 7//7
f 59//59 123//123 124//124
f 97//97 98//98 34//34
f 71//71 72//72 8//8
f 60//60 124//124 125//125
f 98//98 99//99 35//35
f 72//72 73//73 9//9
f 61//61 125//125 126//126
f 99//99 100//100 36//36
f 73//73 74//74 10//10
f 126//126 127//127 63//63
f 100//100 101//101 37//37
f 74//74 75//75 11//11
f 63//63 127//127 128//128
f 101//101 102//102 38//38
f 75//75 76//76 12//12
f 128//128 65//65 1//1
f 102//102 103//103 39//39
f 76//76 77//77 13//13
f 103//103 104//104 40//40
f 77//77 78//78 14//14
f 104//104 105//105 41//41
f 78//78 79//79 15//15
f 105//105 106//106 42//42
f 79//79 80//80 16//16
f 106//106 107//107 43//43
f 80//80 81//81 17//17
f 107//107 108//108 44//44
f 81//81 82//82 18//18
f 108//108 109//109 45//45
f 82//82 83//83 19//19
f 109//109 110//110 46//46
f 83//83 84//84 20//20
f 110//110 111//111 47//47
f 84//84 85//85 21//21
f 47//47 111//111 112//112
f 85//85 86//86 22//22
f 112//112 113//113 49//49
f 86//86 87//87 23//23
f 113//113 114//114 50//50
f 87//87 88//88 24//24
f 50//50 114//114 115//115
f 88//88 89//89 25//25
f 115//115 116//116 52//52
f 89//89 90//90 26//26
f 52//52 116//116 117//117
f 90//90 91//91 27//27
f 117//117 118//118 54//54
f 91//91 92//92 28//28
f 65//65 66//66 2//2
f 54//54 118//118 119//119
f 92//92 93//93 29//29
f 66//66 67//67 3//3
f 55//55 119//119 120//120
f 93//93 94//94 30//30
f 67//67 68//68 4//4
f 56//56 120//120 121//121
f 94//94 95//95 31//31
f 133//133 197//197 196//196
f 186//186 250//250 249//249
f 160//160 224//224 223//223
f 134//134 198//198 197//197
f 187//187 251//251 250//250
f 161//161 225//225 224//224
f 135//135 199//199 198//198
f 188//188 252//252 251//251
f 162//162 226//226 225//225
f 136//136 200//200 199//199
f 189//189 253//253 252//252
f 163//163 227//227 226//226
f 136//136 137//137 201//201
f 190//190 254//254 253//253
f 164//164 228//228 227//227
f 138//138 202//202 201//201
f 190//190 191//191 255//255
f 165//165 229//229 228//228
f 139//139 203//203 202//202
f 191//191 192//192 256//256
f 166//166 230//230 229//229
f 140//140 204//204 203//203
f 130//130 194//194 256//256
f 167//167 231//231 230//230
f 141//141 205//205 204//204
f 168//168 232//232 231//231
f 142//142 206//206 205//205
f 169//169 233//233 232//232
f 143//143 207//207 206//206
f 170//170 234//234 233//233
f 144//144 208//208 207//207
f 171//171 235//235 234//234
f 145//145 209//209 208//208
f 172//172 236//236 235//235
f 146//146 210//210 209//209
f 173//173 237//237 236//236
f 147//147 211//211 210//210
f 174//174 238//238 237//237
f 148//148 212//212 211//211
f 175//175 239//239 238//238
f 149//149 213//213 212//212
f 176//176 240//240 239//239
f 150//150 214//214 213//213
f 177//177 241//241 240//240
f 151//151 215//215 214//214
f 178//178 242//242 241//241
f 152//152 216//216 215//215
f 179//179 243//243 242//242
f 153//153 217//217 216//216
f 180//180 244//244 243//243
f 154//154 218//218 217//217
f 181//181 245//245 244//244
f 155//155 219//219 218//218
f 182//182 246//246 245//245
f 156//156 220//220 219//219
f 129//129 193//193 194//194
f 183//183 247//247 246//246
f 157//157 221//221 220//220
f 131//131 195//195 193//193
f 184//184 248//248 247//247
f 158//158 222//222 221//221
f 131//131 132//132 196//196
f 185//185 249//249 248//248
f 159//159 223//223 222//222
f 17//17 145//145 144//144
f 120//120 119//119 247//247
f 69//69 68//68 196//196
f 18//18 146//146 145//145
f 121//121 120//120 248//248
f 70//70 69//69 197//197
f 19//19 147//147 146//146
f 121//121 249//249 250//250
f 70//70 198//198 199//199
f 20//20 148//148 147//147
f 123//123 122//122 250//250
f 72//72 71//71 199//199
f 21//21 149//149 148//148
f 124//124 123//123 251//251
f 73//73 72//72 200//200
f 22//22 150//150 149//149
f 124//124 252//252 253//253
f 73//73 201//201 202//202
f 23//23 151//151 150//150
f 125//125 253//253 254//254
f 74//74 202//202 203//203
f 24//24 152//152 151//151
f 127//127 126//126 254//254
f 75//75 203//203 204//204
f 25//25 153//153 152//152
f 127//127 255//255 256//256
f 76//76 204//204 205//205
f 25//25 26//26 154//154
f 65//65 128//128 256//256
f 77//77 205//205 206//206
f 27//27 155//155 154//154
f 79//79 78//78 206//206
f 28//28 156//156 155//155
f 79//79 207//207 208//208
f 28//28 29//29 157//157
f 80//80 208//208 209//209
f 29//29 30//30 158//158
f 81//81 209//209 210//210
f 31//31 159//159 158//158
f 83//83 82//82 210//210
f 31//31 32//32 160//160
f 83//83 211//211 212//212
f 32//32 33//33 161//161
f 85//85 84//84 212//212
f 34//34 162//162 161//161
f 86//86 85//85 213//213
f 35//35 163//163 162//162
f 87//87 86//86 214//214
f 35//35 36//36 164//164
f 87//87 215//215 216//216
f 37//37 165//165 164//164
f 89//89 88//88 216//216
f 38//38 166//166 165//165
f 89//89 217//217 218//218
f 38//38 39//39 167//167
f 90//90 218//218 219//219
f 40//40 168//168 167//167
f 92//92 91//91 219//219
f 41//41 169//169 168//168
f 92//92 220//220 221//221
f 41//41 42//42 170//170
f 93//93 221//221 222//222
f 42//42 43//43 171//171
f 95//95 94//94 222//222
f 44//44 172//172 171//171
f 95//95 223//223 224//224
f 44//44 45//45 173//173
f 96//96 224//224 225//225
f 45//45 46//46 174//174
f 97//97 225//225 226//226
f 47//47 175//175 174//174
f 98//98 226//226 227//227
f 47//47 48//48 176//176
f 99//99 227//227 228//228
f 49//49 177//177 176//176
f 101//101 100//100 228//228
f 50//50 178//178 177//177
f 102//102 101//101 229//229
f 51//51 179//179 178//178
f 102//102 230//230 231//231
f 51//51 52//52 180//180
f 103//103 231//231 232//232
f 53//53 181//181 180//180
f 2//2 129//129 130//130
f 105//105 104//104 232//232
f 54//54 182//182 181//181
f 3//3 131//131 129//129
f 105//105 233//233 234//234
f 55//55 183//183 182//182
f 3//3 4//4 132//132
f 107//107 106//106 234//234
f 55//55 56//56 184//184
f 5//5 133//133 132//132
f 107//107 235//235 236//236
f 57//57 185//185 184//184
f 6//6 134//134 133//133
f 108//108 236//236 237//237
f 57//57 58//58 186//186
f 6//6 7//7 135//135
f 109//109 237//237 238//238
f 58//58 59//59 187//187
f 7//7 8//8 136//136
f 110//110 238//238 239//239
f 60//60 188//188 187//187
f 9//9 137//137 136//136
f 111//111 239//239 240//240
f 60//60 61//61 189//189
f 9//9 10//10 138//138
f 112//112 240//240 241//241
f 61//61 62//62 190//190
f 11//11 139//139 138//138
f 113//113 241//241 242//242
f 63//63 191//191 190//190
f 11//11 12//12 140//140
f 115//115 114//114 242//242
f 64//64 192//192 191//191
f 12//12 13//13 141//141
f 116//116 115//115 243//243
f 64//64 1//1 130//130
f 13//13 14//14 142//142
f 117//117 116//116 244//244
f 65//65 194//194 193//193
f 14//14 15//15 143//143
f 118//118 117//117 245//245
f 67//67 66//66 193//193
f 15//15 16//16 144//144
f 119//119 118//118 246//246
f 67//67 195//195 196//196
